<?xml version="1.0" standalone="no"?><!DOCTYPE svg PUBLIC "-//W3C//DTD SVG 1.1//EN" "http://www.w3.org/Graphics/SVG/1.1/DTD/svg11.dtd"><svg t="1628841996572" class="icon" viewBox="0 0 1024 1024" version="1.1" xmlns="http://www.w3.org/2000/svg" p-id="2049" width="32" height="32" xmlns:xlink="http://www.w3.org/1999/xlink"><defs><style type="text/css"></style></defs><path d="M698.181818 546.909091a35.141818 35.141818 0 0 1-24.669091-10.24l-372.363636-372.363636a34.909091 34.909091 0 0 1 49.338182-49.338182l372.363636 372.363636a34.676364 34.676364 0 0 1 0 49.338182 35.141818 35.141818 0 0 1-24.669091 10.24z" p-id="2050" fill="#ffffff"></path><path d="M325.818182 919.272727a35.141818 35.141818 0 0 1-24.669091-10.24 34.676364 34.676364 0 0 1 0-49.338182l372.363636-372.363636a34.909091 34.909091 0 0 1 49.338182 49.338182l-372.363636 372.363636a35.141818 35.141818 0 0 1-24.669091 10.24z" p-id="2051" fill="#ffffff"></path></svg>